<svg width="30" height="30" viewBox="0 0 30 30" fill="none" xmlns="http://www.w3.org/2000/svg">
<circle cx="15" cy="15" r="15" fill="#3390CA"/>
<path d="M19.2068 5.55855H17.0406V6.43675L17.9188 7.31496H17.0406V8.13462H19.2068V7.31496L18.3286 6.43675H19.2068V5.55855Z" fill="white"/>
<path d="M11.0102 5.5H13.1179V6.37821H11.8884V7.25641H13.1179V8.07607H11.0102V5.5Z" fill="white"/>
<path d="M13.9961 5.5H16.1624V6.37821H15.2842L16.1624 7.25641V8.07607H13.9961V7.25641H14.8743L13.9961 6.37821V5.5Z" fill="white"/>
<path fill-rule="evenodd" clip-rule="evenodd" d="M8.19998 9.30556H21.9L20.729 23.3568L15.1085 24.9376L9.42947 23.3568L8.19998 9.30556ZM19.3239 12.1744H10.7175L10.8931 13.8722H15.1671L11.1273 15.6286L11.2444 17.2679H17.2162L17.0991 19.6098L15.1085 20.1953L13.1179 19.6098L13.0594 18.2632H11.4201L11.5372 20.8979L15.1085 22.0103L18.6799 20.8979L19.0897 15.6286H15.1671L19.2654 13.8722L19.3239 12.1744Z" fill="white"/>
</svg>
