<svg width="30" height="30" viewBox="0 0 30 30" fill="none" xmlns="http://www.w3.org/2000/svg">
<circle cx="15" cy="15" r="15" fill="#61DAFB"/>
<path fill-rule="evenodd" clip-rule="evenodd" d="M11.4672 4.63501C12.2929 4.92641 13.3554 5.58491 14.2856 6.38161L14.9815 6.97761L15.3356 6.68061C16.7352 5.50661 17.6674 4.91431 18.6115 4.59921C20.9916 3.80501 22.506 5.43721 22.297 8.57131C22.2629 9.08261 22.1675 9.82181 22.085 10.214C22.0025 10.6061 21.9698 10.957 22.0124 10.9936C22.0549 11.0302 22.4497 11.185 22.8897 11.3375C25.4575 12.2278 26.8744 13.5554 26.8609 15.058C26.8483 16.4595 25.4175 17.7815 22.9641 18.6584C22.4296 18.8494 21.9768 19.0213 21.9577 19.0403C21.9387 19.0594 22.0032 19.45 22.1011 19.9083C22.3653 21.1453 22.3432 23.1564 22.0575 23.8917C21.6107 25.0415 20.8007 25.6346 19.695 25.6215C18.6004 25.6085 17.5125 25.0969 16.0169 23.8917C15.5733 23.5342 15.1561 23.2011 15.0898 23.1516C15.0083 23.0906 14.7592 23.2397 14.3198 23.6125C11.9591 25.6151 10.0991 26.1354 8.81143 25.1532C7.72553 24.325 7.38513 22.3277 7.90303 19.8234C7.98803 19.4125 8.04173 19.0603 8.02233 19.041C8.00293 19.0216 7.54983 18.8494 7.01533 18.6584C5.20103 18.0099 3.85273 17.0475 3.35083 16.0425C2.47193 14.2827 3.94623 12.4275 7.08973 11.3375C7.52973 11.185 7.92453 11.0302 7.96703 10.9936C8.00963 10.957 7.97693 10.6061 7.89443 10.214C7.02243 6.06871 8.59073 3.61981 11.4672 4.63501ZM9.40353 5.69301C9.21483 5.85871 8.98293 6.18491 8.88833 6.41801C8.63353 7.04541 8.58753 8.36731 8.78143 9.49171C9.00633 10.7952 9.01363 10.8136 9.27283 10.7306C9.39213 10.6924 10.1085 10.5655 10.8648 10.4486L12.24 10.236L12.9026 9.38891C13.2671 8.92291 13.7186 8.38071 13.906 8.18391C14.1078 7.97201 14.2219 7.76821 14.1859 7.68391C14.1135 7.51411 13.089 6.65981 12.3921 6.18791C11.6597 5.69201 10.8698 5.39681 10.2682 5.39411C9.82903 5.39211 9.69253 5.43921 9.40353 5.69301ZM18.6373 5.62371C17.8059 5.96581 15.9542 7.30721 15.7935 7.68391C15.7575 7.76821 15.8716 7.97201 16.0734 8.18391C16.2608 8.38071 16.7123 8.92291 17.0768 9.38891L17.7394 10.236L19.1146 10.4486C19.8709 10.5655 20.5873 10.6924 20.7066 10.7306C20.9658 10.8136 20.9731 10.7952 21.198 9.49171C21.3919 8.36731 21.3459 7.04541 21.0911 6.41801C20.9965 6.18491 20.7646 5.85871 20.5759 5.69301C20.2869 5.43921 20.1504 5.39211 19.7112 5.39411C19.4025 5.39551 18.9643 5.48921 18.6373 5.62371ZM14.6749 8.81791C14.3119 9.20751 13.6397 10.0445 13.6397 10.107C13.6397 10.1316 14.2472 10.1517 14.9897 10.1517C15.7322 10.1517 16.3397 10.1333 16.3397 10.1109C16.3397 10.0429 15.3753 8.85411 15.1691 8.66791C14.9845 8.50121 14.9643 8.50731 14.6749 8.81791ZM13.7268 11.1659C13.0651 11.1914 12.8297 11.2391 12.7171 11.3704C12.4725 11.6558 11.4978 13.2884 11.0364 14.1855L10.6024 15.0293L11.046 15.8782C11.8552 17.4264 12.7256 18.7646 12.9652 18.8288C13.2575 18.9071 16.7219 18.9071 17.0142 18.8288C17.2539 18.7646 18.1243 17.4263 18.9337 15.8776L19.3777 15.0281L18.9971 14.2849C18.5292 13.3712 17.3612 11.4322 17.2046 11.3091C17.0707 11.2039 14.9774 11.1177 13.7268 11.1659ZM10.4397 11.4904C10.2472 11.5337 9.91683 11.5995 9.70543 11.6367C9.25633 11.7157 9.25663 11.7233 9.75953 13.0275L10.0638 13.8164L10.2348 13.5291C10.8495 12.4963 11.4397 11.4701 11.4397 11.4341C11.4397 11.3685 10.8293 11.4029 10.4397 11.4904ZM18.5397 11.4341C18.5397 11.4701 19.1299 12.4963 19.7446 13.5291L19.9156 13.8164L20.2199 13.0275C20.5521 12.166 20.6904 11.6917 20.6093 11.6917C20.5807 11.6917 20.2046 11.6242 19.7735 11.5417C18.9946 11.3927 18.5397 11.353 18.5397 11.4341ZM7.48973 12.2449C5.76653 12.8377 4.37663 13.8298 4.15753 14.6236C3.86193 15.694 4.94973 16.8013 7.12073 17.6397C8.16983 18.0449 8.33913 18.0654 8.40953 17.7964C8.43763 17.6889 8.69623 17.014 8.98413 16.2964L9.50773 14.9918L9.31053 14.5667C9.20213 14.333 8.94493 13.6711 8.73903 13.0958C8.53303 12.5206 8.32523 12.0397 8.27713 12.027C8.22903 12.0144 7.87473 12.1125 7.48973 12.2449ZM21.5891 12.1167C21.5646 12.1855 21.4098 12.6282 21.245 13.1006C21.0802 13.573 20.8384 14.1906 20.7075 14.473L20.4696 14.9865L20.9942 16.2938C21.2827 17.0128 21.5418 17.6889 21.5699 17.7964C21.6403 18.0654 21.8096 18.0449 22.8587 17.6397C25.0297 16.8013 26.1175 15.694 25.8219 14.6236C25.5978 13.8118 24.0893 12.7586 22.3482 12.1982C21.5906 11.9544 21.6446 11.9601 21.5891 12.1167ZM15.9763 13.1408C16.781 13.5253 17.2484 14.5482 17.0416 15.4724C16.8226 16.4507 16.01 17.0917 14.9887 17.0917C14.0195 17.0917 13.2401 16.5178 12.9761 15.6097C12.6577 14.5146 13.2164 13.4083 14.2897 13.0085C14.7018 12.855 15.511 12.9185 15.9763 13.1408ZM9.99053 16.3904C9.81613 16.6725 9.34063 18.2317 9.40953 18.2954C9.50083 18.3798 11.3583 18.7065 11.4164 18.6484C11.4561 18.6086 10.1495 16.2917 10.0873 16.2917C10.0676 16.2917 10.0241 16.3361 9.99053 16.3904ZM19.195 17.4436C18.8265 18.0853 18.5421 18.6275 18.563 18.6484C18.6211 18.7065 20.4786 18.3798 20.5699 18.2954C20.6515 18.22 20.1059 16.5179 19.9502 16.3622C19.9031 16.3151 19.5645 16.8 19.195 17.4436ZM8.94823 19.6557C8.56353 21.0438 8.57053 22.9987 8.96303 23.78C9.28253 24.4161 9.62423 24.6375 10.2677 24.6253C11.2006 24.6075 12.4642 23.9474 13.7285 22.8172L14.2673 22.3355L13.4259 21.2886C12.9632 20.7128 12.5114 20.1368 12.422 20.0086C12.2917 19.8216 12.122 19.7582 11.5653 19.6883C10.8173 19.5944 9.88213 19.4445 9.37243 19.3368C9.07073 19.2731 9.04993 19.2887 8.94823 19.6557ZM20.5285 19.3362C20.4782 19.3865 19.4338 19.5602 18.4057 19.6893C17.8572 19.7582 17.6874 19.8221 17.5574 20.0086C17.468 20.1368 17.0162 20.7128 16.5535 21.2886L15.7121 22.3355L16.2509 22.8172C16.9866 23.4748 18.0471 24.1752 18.6715 24.4157C19.377 24.6875 20.1516 24.6949 20.5117 24.4332C21.1989 23.934 21.4789 22.5935 21.2516 20.891C21.0909 19.6873 20.9672 19.2917 20.7517 19.2917C20.6534 19.2917 20.553 19.3117 20.5285 19.3362ZM13.6397 19.9376C13.6397 20.0618 14.8782 21.4417 14.9897 21.4417C15.1012 21.4417 16.3397 20.0618 16.3397 19.9376C16.3397 19.9123 15.7322 19.8917 14.9897 19.8917C14.2472 19.8917 13.6397 19.9123 13.6397 19.9376Z" fill="white"/>
</svg>
