<svg width="30" height="30" viewBox="0 0 30 30" fill="none" xmlns="http://www.w3.org/2000/svg">
<circle cx="15" cy="15" r="15" fill="#16BECB"/>
<path fill-rule="evenodd" clip-rule="evenodd" d="M16.4757 8.13713C17.0312 8.27236 17.7319 8.57312 18.2223 8.88678C18.4381 9.02484 19.192 9.70536 19.8976 10.399C20.6032 11.0927 21.318 11.7404 21.486 11.8383C21.9803 12.1261 22.5707 12.2464 23.2824 12.2044C24.2549 12.1469 25.1237 11.7352 25.9227 10.9532L26.3586 10.5266L26.31 10.8144C26.0694 12.2383 24.9497 13.7726 23.7122 14.3739C22.6849 14.8731 21.5614 15.0584 20.338 14.9303C18.4483 14.7324 17.2315 14.1538 15.6189 12.6865C14.4825 11.6524 13.94 11.2289 13.4504 10.9936C13.0722 10.8117 12.9184 10.7785 12.3365 10.7527C11.7364 10.7263 11.6017 10.743 11.1238 10.9038C10.4742 11.1224 9.81951 11.5455 9.2595 12.1086L8.84309 12.5275L8.89284 12.2912C8.96427 11.9526 9.22318 11.332 9.49862 10.8394C10.3349 9.3441 11.7912 8.3826 13.6891 8.07286C14.4242 7.95282 15.8541 7.98584 16.4757 8.13713ZM10.5474 15.1644C11.8406 15.4576 12.535 15.9129 14.0505 17.4614C14.6137 18.0368 15.2551 18.6244 15.4758 18.767C16.0498 19.138 16.6024 19.272 17.3804 19.2286C18.4085 19.1714 19.3021 18.7488 20.0832 17.9507C20.2969 17.7323 20.4716 17.5936 20.4716 17.6424C20.4716 17.8253 20.2566 18.5476 20.0852 18.9397C19.1264 21.1352 16.9842 22.2574 14.3392 21.95C12.3949 21.7239 11.278 21.165 9.46723 19.5122C7.92742 18.1067 7.46956 17.8349 6.54465 17.7774C5.43327 17.7082 4.51639 18.0811 3.55125 18.9947C2.97807 19.5372 2.9693 19.5425 3.01885 19.3112C3.15016 18.6977 3.65312 17.7128 4.16331 17.07C5.01693 15.9948 6.49746 15.2502 8.15784 15.0614C8.82898 14.9851 9.97445 15.0345 10.5474 15.1644Z" fill="white"/>
</svg>
