<svg width="30" height="30" viewBox="0 0 30 30" fill="none" xmlns="http://www.w3.org/2000/svg">
<circle cx="15" cy="15" r="15" fill="#DD0330"/>
<path fill-rule="evenodd" clip-rule="evenodd" d="M10.9699 8.3952C8.82487 9.16013 7.04002 9.81396 7.00362 9.84811C6.92596 9.92082 8.12337 20.4341 8.22036 20.531C8.2565 20.5672 9.79668 21.434 11.643 22.4575L15 24.3183L18.357 22.4575C20.2033 21.434 21.7435 20.5672 21.7796 20.531C21.8766 20.4341 23.074 9.92082 22.9964 9.84811C22.9068 9.76413 15.1051 6.99446 14.9739 7.00001C14.9168 7.00244 13.115 7.63026 10.9699 8.3952ZM17.5052 14.4278C18.8591 17.4664 19.9849 20.0207 20.0069 20.1042C20.0433 20.2419 19.959 20.2559 19.0929 20.2559H18.1389L17.6261 18.9775L17.1133 17.6991H15H12.8867L12.3739 18.9775L11.8611 20.2559H10.9071C10.041 20.2559 9.95667 20.2419 9.99307 20.1042C10.06 19.8503 14.9535 8.90325 15 8.90325C15.0238 8.90325 16.1511 11.3893 17.5052 14.4278ZM14.3067 14.2931C13.9491 15.1591 13.6441 15.9189 13.6286 15.9816C13.6063 16.0725 13.8863 16.0958 15 16.0958C16.1137 16.0958 16.3937 16.0725 16.3714 15.9816C16.3132 15.7447 15.0414 12.7186 15 12.7186C14.9762 12.7186 14.6642 13.4271 14.3067 14.2931Z" fill="white"/>
</svg>
