<svg width="30" height="30" viewBox="0 0 30 30" fill="none" xmlns="http://www.w3.org/2000/svg">
<circle cx="15" cy="15" r="15" fill="#FF5D01"/>
<path d="M12.5597 20.3382C14.035 20.8054 16.3187 20.6766 17.5449 20.0571C17.8139 19.9213 18.0634 19.8397 18.0994 19.8758C18.1355 19.9119 18.1627 20.2469 18.1596 20.6204C18.1507 21.7369 17.6779 22.4467 16.3356 23.359C15.9393 23.6283 15.5219 23.967 15.408 24.1117C15.1479 24.4425 15.0408 25.1242 15.1736 25.6052C15.2954 26.0462 15.2154 26.0644 14.7701 25.6971C14.0776 25.126 13.8673 24.6677 13.7719 23.5223C13.6905 22.5446 13.5629 22.306 13.0684 22.2071C12.5415 22.1016 11.8638 22.5386 11.8638 22.9838C11.8638 23.1716 11.8539 23.1731 11.6735 23.0098C11.1262 22.5145 10.739 20.9521 10.8991 19.8844L10.9687 19.4206L11.4316 19.7741C11.6863 19.9685 12.194 20.2223 12.5597 20.3382Z" fill="white"/>
<path fill-rule="evenodd" clip-rule="evenodd" d="M17.3374 5.25699C17.5118 5.38139 17.7323 5.66012 17.8274 5.8764C17.9225 6.09267 18.889 9.19632 19.9754 12.7734C21.0617 16.3505 21.972 19.3333 21.9983 19.4019C22.0245 19.4705 21.7519 19.3842 21.3927 19.2102C20.5987 18.8256 18.9032 18.254 18.0329 18.0776L17.3939 17.9479L17.1395 17.1156C16.9996 16.6579 16.598 15.3078 16.2469 14.1154C15.8958 12.9231 15.431 11.3495 15.214 10.6186C14.9971 9.88768 14.7455 9.21552 14.6549 9.12498C14.5042 8.97415 14.4743 8.97746 14.3026 9.16349C14.1994 9.27519 14.0407 9.62216 13.95 9.93444C13.2157 12.4608 12.1831 15.9932 11.8528 17.1092L11.6083 17.9351L10.5503 18.1796C9.96844 18.3141 8.93403 18.6481 8.25154 18.9216C7.56916 19.1953 7.00602 19.4104 7.00003 19.3998C6.98868 19.3797 10.0581 9.2948 10.2422 8.74725C10.2995 8.57691 10.5362 7.82639 10.7683 7.07939C11.0004 6.33249 11.2709 5.62223 11.3695 5.50124C11.7394 5.04722 12.2053 4.97774 14.6975 5.0052C16.9009 5.02946 17.0366 5.04247 17.3374 5.25699Z" fill="white"/>
</svg>
