<svg width="30" height="30" viewBox="0 0 30 30" fill="none" xmlns="http://www.w3.org/2000/svg">
<circle cx="15" cy="15" r="15" fill="url(#paint0_linear_241_148)"/>
<path d="M8.20564 6.12676C7.30464 6.26804 6.59526 6.9675 6.39973 7.90739C6.363 8.08401 6.36036 8.14877 6.36311 8.80505C6.36863 10.1257 6.27904 11.072 6.06742 11.9287C5.8166 12.944 5.43335 13.6359 4.89534 14.0444C4.66384 14.2202 4.29311 14.3724 4.01002 14.4078L3.90001 14.4215V14.9886V15.5557L4.01002 15.5694C4.29311 15.6048 4.66384 15.757 4.89534 15.9328C5.43335 16.3413 5.8166 17.0332 6.06742 18.0485C6.27925 18.906 6.36854 19.8526 6.36302 21.182C6.36034 21.8282 6.36303 21.8935 6.39973 22.0698C6.59751 23.0203 7.30996 23.7151 8.22772 23.8523C8.38302 23.8756 9.33721 23.8785 15.1465 23.8737C21.3534 23.8685 21.8946 23.8656 22.006 23.8371C22.4372 23.727 22.7451 23.5619 23.0338 23.286C23.3818 22.9536 23.6161 22.5222 23.7114 22.0384C23.7379 21.904 23.742 21.7745 23.7383 21.2006C23.7304 20.0088 23.7982 19.1681 23.969 18.3364C24.2511 16.9628 24.7792 16.0912 25.5472 15.7313C25.716 15.6522 25.924 15.5902 26.09 15.5694L26.2 15.5557V14.9893V14.4229L26.0591 14.4011C25.8655 14.3712 25.7247 14.3284 25.5468 14.2454C24.7803 13.8878 24.2511 13.0141 23.969 11.6408C23.7982 10.8095 23.7306 9.96958 23.7382 8.77659C23.7418 8.20434 23.7376 8.07278 23.7113 7.93884C23.5699 7.21849 23.1147 6.61355 22.4885 6.31373C22.2814 6.2146 22.0465 6.14413 21.8343 6.11752C21.7317 6.10467 19.4915 6.09896 15.0226 6.10016C9.57278 6.10163 8.33503 6.10647 8.20564 6.12676Z" fill="white"/>
<path fill-rule="evenodd" clip-rule="evenodd" d="M16.1622 10.3448C16.7258 10.4349 17.1776 10.6094 17.549 10.8803C17.9088 11.1428 18.2099 11.574 18.3345 12.0054C18.4402 12.3718 18.4496 12.873 18.357 13.2081C18.1554 13.9378 17.5967 14.5035 16.8709 14.7131L16.7216 14.7562L16.9279 14.7959C18.0019 15.0027 18.721 15.7155 18.8765 16.7273C18.9325 17.0919 18.8857 17.6137 18.7642 17.9772C18.4713 18.8538 17.7136 19.4536 16.6251 19.6705C16.1413 19.7669 16.1139 19.7679 13.8339 19.7766L11.7 19.7847V15.0424V10.3L13.8339 10.3069C15.7208 10.3129 15.9903 10.3173 16.1622 10.3448ZM13.2368 14.3237V12.9423V11.5609L14.3709 11.561C15.2796 11.5611 15.5383 11.5665 15.6726 11.5883C16.3859 11.704 16.7928 12.0823 16.8687 12.7003C16.9207 13.1228 16.7978 13.5258 16.5349 13.795C16.2999 14.0357 15.9927 14.1771 15.5111 14.2661C15.3191 14.3016 15.2133 14.3057 14.269 14.3143L13.2368 14.3237ZM13.2368 18.5246V17.0044V15.4843L14.482 15.4909C15.5436 15.4965 15.7517 15.5021 15.8943 15.5283C16.1635 15.5779 16.3803 15.6467 16.5869 15.7481C16.7516 15.8289 16.8038 15.8664 16.9407 16.0024C17.2071 16.2672 17.3121 16.5402 17.3156 16.9767C17.318 17.2768 17.2821 17.4505 17.1691 17.6857C17.0117 18.0132 16.7276 18.2443 16.3158 18.3797C15.919 18.5102 15.9077 18.5111 14.5005 18.5182L13.2368 18.5246Z" fill="url(#paint1_linear_241_148)"/>
<defs>
<linearGradient id="paint0_linear_241_148" x1="-2.2" y1="-2.15" x2="40.25" y2="41.65" gradientUnits="userSpaceOnUse">
<stop stop-color="#7A09F7"/>
<stop offset="1" stop-color="#900BFE" stop-opacity="0.8"/>
</linearGradient>
<linearGradient id="paint1_linear_241_148" x1="2.37884" y1="4.92487" x2="26.6192" y2="36.3021" gradientUnits="userSpaceOnUse">
<stop stop-color="#7A09F7"/>
<stop offset="1" stop-color="#900BFE" stop-opacity="0.8"/>
</linearGradient>
</defs>
</svg>
