<svg width="30" height="30" viewBox="0 0 30 30" fill="none" xmlns="http://www.w3.org/2000/svg">
<circle cx="15" cy="15" r="15" fill="#D74A24"/>
<path fill-rule="evenodd" clip-rule="evenodd" d="M10.5002 5.92394L10.5 6.35L10.8179 6.34788H11.1356V5.92394V5.5H12.0615V6.85662V8.21323H11.616C11.1831 8.21323 11.1697 8.20147 11.1356 7.78929C11.1054 7.42391 11.0586 7.36048 10.7969 7.3303C10.5193 7.29819 10.4902 7.33222 10.4577 7.72598C10.423 8.14721 10.4123 8.1567 9.97001 8.1567H9.51781V6.97735C9.49995 6.32867 9.49999 5.5 9.49999 5.5C9.49999 5.5 10.2328 5.5 10.5 5.5L10.5002 5.92394ZM14.7747 6.00873C14.7747 6.497 14.7612 6.51746 14.4405 6.51746H14.1063L14.0731 7.33708L14.0399 8.1567L13.5594 8.19141L13.0789 8.22623V7.37903V6.53182L12.7115 6.49632C12.4023 6.46659 12.3383 6.41006 12.3073 6.14055C12.2373 5.52815 12.2933 5.5 13.5841 5.5H14.7747V6.00873ZM16.2444 5.89568C16.3789 6.1133 16.5052 6.29136 16.5251 6.29136C16.545 6.29136 16.668 6.11036 16.7984 5.88924C17.0185 5.51617 17.0707 5.48949 17.5162 5.52182L17.9967 5.55653V6.85662V8.1567L17.5162 8.19141L17.0357 8.22623L17.029 7.68268C17.0234 7.22019 17.0024 7.17022 16.8877 7.34692C16.5051 7.93693 16.5178 7.93275 16.2895 7.54351L16.0748 7.17757L16.0183 7.66708C15.9621 8.15354 15.9588 8.1567 15.5095 8.1567H15.0573L15.0249 6.97735C15.007 6.32867 15.0182 5.73085 15.0496 5.649C15.0835 5.56048 15.2882 5.5 15.5533 5.5C15.9416 5.5 16.0317 5.55155 16.2444 5.89568ZM19.2735 6.37615L19.3067 7.19577H19.867H20.4273V7.7045V8.21323H19.3533H18.2793V6.93202C18.2793 6.22726 18.3156 5.61441 18.36 5.56998C18.4044 5.52555 18.6207 5.50441 18.8405 5.52284L19.2402 5.55653L19.2735 6.37615ZM21.628 9.88074C21.5883 10.2382 21.4297 12.0315 21.2755 13.8658C21.1214 15.7001 20.9695 17.3789 20.9379 17.5965C20.9064 17.8141 20.8036 18.9588 20.7094 20.1401C20.6153 21.3215 20.5099 22.4252 20.4752 22.5928C20.4024 22.9438 20.6109 22.8657 17.3471 23.7644L15.0017 24.4103L12.5989 23.7613C9.62487 22.9581 9.46128 22.9029 9.46128 22.703C9.46128 22.6143 9.33444 21.1619 9.17933 19.4755C9.02423 17.7891 8.79304 15.2139 8.66563 13.7527C8.53811 12.2916 8.3951 10.7004 8.34784 10.2167C8.30047 9.73309 8.28578 9.31333 8.31506 9.28405C8.34445 9.25466 11.368 9.23069 15.0343 9.23069H21.7L21.628 9.88074ZM10.9842 13.2723C11.0295 13.9406 11.1255 15.0472 11.1974 15.7311L11.3283 16.9747L14.1988 17.0049L17.0693 17.0352L16.9959 18.0789C16.9431 18.8304 16.873 19.1593 16.7456 19.2536C16.6483 19.3257 16.2115 19.4721 15.7749 19.5791C15.0265 19.7625 14.9347 19.7627 14.165 19.5814C13.7161 19.4757 13.2834 19.3488 13.2034 19.2993C13.1234 19.2499 13.0244 18.9355 12.9836 18.6008L12.9093 17.9922L12.1463 17.9587C11.5799 17.9339 11.383 17.9631 11.3825 18.0718C11.3821 18.1524 11.4414 18.7324 11.5141 19.361L11.6462 20.5036L12.843 20.8155C15.0899 21.4011 14.885 21.395 16.6438 20.9298C17.5122 20.7001 18.2349 20.5011 18.2498 20.4875C18.2646 20.4741 18.3532 19.5509 18.4467 18.4362C18.5402 17.3215 18.6456 16.1933 18.681 15.929L18.7454 15.4485H15.7447H12.7441L12.6884 15.1941C12.6578 15.0542 12.6187 14.66 12.6015 14.318L12.5702 13.6962L15.7639 13.6661L18.9576 13.6362V13.0254C18.9576 12.6895 18.9885 12.3342 19.0262 12.2358C19.0881 12.0747 18.6874 12.057 14.9983 12.057H10.9019L10.9842 13.2723Z" fill="white"/>
</svg>
