<svg width="30" height="30" viewBox="0 0 30 30" fill="none" xmlns="http://www.w3.org/2000/svg">
<circle cx="15" cy="15" r="15" fill="#FACC15"/>
<path fill-rule="evenodd" clip-rule="evenodd" d="M18.7569 8.91258C16.7173 9.21901 15.5483 10.7114 15.7966 12.6918C15.8968 13.4905 16.1666 14.0442 16.733 14.6137C17.2191 15.1024 17.7591 15.4452 18.6565 15.8349C20.185 16.4986 20.5042 16.6626 20.7808 16.9264C21.0342 17.1681 21.1307 17.3975 21.13 17.7565C21.1295 17.998 21.1154 18.0696 21.0368 18.232C20.8806 18.5546 20.505 18.8191 20.0448 18.9305C19.8006 18.9897 19.1459 18.9894 18.8739 18.93C18.206 18.7843 17.6715 18.4065 17.2182 17.7597C17.0365 17.5002 17.0229 17.4885 16.955 17.5322C16.9157 17.5576 16.4695 17.8168 15.9636 18.1081C15.4576 18.3996 15.0381 18.6421 15.0314 18.6471C15.0064 18.6658 15.2624 19.0871 15.4591 19.3509C15.8264 19.8434 16.4356 20.3527 16.9839 20.6256C18.2043 21.2328 19.9323 21.3562 21.2575 20.9306C21.3725 20.8936 21.6175 20.7904 21.8021 20.7012C23.1647 20.0425 23.8196 18.7041 23.5746 17.079C23.4827 16.469 23.2761 15.9887 22.9078 15.5291C22.4306 14.9334 21.7124 14.4622 20.4128 13.8923C18.9817 13.2647 18.7233 13.1271 18.4895 12.8682C18.2839 12.6407 18.222 12.4674 18.222 12.1197C18.222 11.7656 18.2889 11.5841 18.4956 11.3774C18.8664 11.0066 19.5787 10.9316 20.1338 11.2049C20.369 11.3207 20.7103 11.653 20.8648 11.9167C20.9141 12.0008 20.9699 12.0695 20.9889 12.0695C21.0078 12.0695 21.4229 11.8122 21.9112 11.4976C22.3995 11.1831 22.8191 10.9181 22.8437 10.9086C22.8682 10.8992 22.8883 10.8766 22.8883 10.8584C22.8883 10.7763 22.4965 10.2367 22.2516 9.98169C21.7382 9.44688 21.1976 9.14778 20.4295 8.97356C20.2003 8.92158 18.9905 8.87749 18.7569 8.91258ZM11.2127 13.3993C11.2121 18.1521 11.2167 18.0289 11.0274 18.4157C10.8465 18.7855 10.4914 18.9608 9.92312 18.9608C9.28193 18.9608 8.92857 18.7247 8.48265 17.9984C8.3953 17.8561 8.3182 17.7325 8.31124 17.7236C8.30431 17.7148 8.25818 17.7311 8.20877 17.76C8.08667 17.8312 6.31519 18.9016 6.30198 18.9121C6.27619 18.9326 6.50818 19.3378 6.69869 19.605C7.25772 20.3892 8.08052 20.9057 9.08908 21.1055C9.45752 21.1785 10.6506 21.1688 11.0126 21.0899C12.1302 20.8463 12.8882 20.2767 13.3195 19.3563C13.4762 19.0219 13.57 18.6935 13.6381 18.2415C13.6809 17.9566 13.6884 17.2485 13.6886 13.4662L13.6888 9.02535H12.4511H11.2133L11.2127 13.3993Z" fill="black"/>
</svg>
