<svg width="32" height="32" viewBox="0 0 32 32" fill="none" xmlns="http://www.w3.org/2000/svg">
<path d="M26.5 4.5H5.5C4.94772 4.5 4.5 4.94772 4.5 5.5V26.5C4.5 27.0523 4.94772 27.5 5.5 27.5H26.5C27.0523 27.5 27.5 27.0523 27.5 26.5V5.5C27.5 4.94772 27.0523 4.5 26.5 4.5Z" stroke="#F9FAFB" stroke-width="3" stroke-linecap="round" stroke-linejoin="round"/>
<path d="M15.5 15V22" stroke="#F9FAFB" stroke-width="3" stroke-linecap="round" stroke-linejoin="round"/>
<path d="M10.5 15V22" stroke="#F9FAFB" stroke-width="3" stroke-linecap="round" stroke-linejoin="round"/>
<path d="M15.5 18.5C15.5 17.5717 15.8687 16.6815 16.5251 16.0251C17.1815 15.3687 18.0717 15 19 15C19.9283 15 20.8185 15.3687 21.4749 16.0251C22.1313 16.6815 22.5 17.5717 22.5 18.5V22" stroke="#F9FAFB" stroke-width="3" stroke-linecap="round" stroke-linejoin="round"/>
<path d="M12.4375 10C12.4375 11.0701 11.5701 11.9375 10.5 11.9375C9.42995 11.9375 8.5625 11.0701 8.5625 10C8.5625 8.92995 9.42995 8.0625 10.5 8.0625C11.5701 8.0625 12.4375 8.92995 12.4375 10Z" fill="#F9FAFB" stroke="#F9FAFB" stroke-width="0.125"/>
</svg>
