<svg width="33" height="32" viewBox="0 0 33 32" fill="none" xmlns="http://www.w3.org/2000/svg">
<path d="M16.5001 11C16.5001 8.24999 18.8126 5.96249 21.5626 5.99999C22.5256 6.01111 23.465 6.30013 24.2677 6.83233C25.0704 7.36453 25.7024 8.11724 26.0876 8.99999H30.5001L26.4626 13.0375C26.202 17.0932 24.4067 20.8975 21.4416 23.6768C18.4764 26.4562 14.5641 28.002 10.5001 28C6.50007 28 5.50006 26.5 5.50006 26.5C5.50006 26.5 9.50007 25 11.5001 22C11.5001 22 3.50006 18 5.50006 6.99999C5.50006 6.99999 10.5001 12 16.5001 13V11Z" stroke="#F9FAFB" stroke-width="3" stroke-linecap="round" stroke-linejoin="round"/>
</svg>
