<svg width="30" height="30" viewBox="0 0 30 30" fill="none" xmlns="http://www.w3.org/2000/svg">
<circle cx="15" cy="15" r="15" fill="#3178C6"/>
<path fill-rule="evenodd" clip-rule="evenodd" d="M22.7505 9.13063C23.0289 9.19105 23.367 9.28147 23.5019 9.33152L23.7471 9.42251L23.761 10.6257C23.7687 11.2874 23.7562 11.8288 23.7334 11.8288C23.7106 11.8288 23.5369 11.7465 23.3475 11.6459C22.1672 11.0192 20.5929 10.8765 19.6927 11.3148C19.264 11.5236 19.0964 11.7438 19.068 12.1359C19.034 12.6066 19.254 12.938 19.8517 13.3166C19.9707 13.392 20.5609 13.6787 21.1631 13.9536C22.3998 14.5184 22.9975 14.889 23.4416 15.3663C24.0347 16.0039 24.2664 16.6976 24.224 17.71C24.1859 18.6228 23.9258 19.2676 23.3689 19.8306C22.5841 20.6238 21.3764 20.9993 19.6084 21C18.4108 21.0005 17.304 20.8127 16.5575 20.4825L16.3115 20.3736V19.0556V17.7375L16.5835 17.9467C16.9782 18.2504 17.824 18.6492 18.3323 18.7715C19.2404 18.9899 20.1786 18.9584 20.7663 18.6898C21.1133 18.5311 21.2153 18.442 21.3487 18.1804C21.4278 18.0255 21.4473 17.9063 21.4309 17.6793C21.3835 17.0238 20.8842 16.6297 19.1873 15.9081C18.0675 15.432 17.5618 15.1096 17.0376 14.5375C16.6946 14.1632 16.4606 13.7341 16.3385 13.2558C16.238 12.8622 16.2376 12.0066 16.3377 11.5822C16.6541 10.2398 17.8725 9.31789 19.7054 9.03368C19.8764 9.00715 20.5177 8.99342 21.1304 9.00311C22.023 9.01725 22.3451 9.04259 22.7505 9.13063ZM15.2751 10.3002V11.3625H13.617H11.9589V16.1037V20.8449H10.6378H9.31682L9.30355 16.1166L9.29034 11.3884L7.64517 11.3747L6 11.361V10.2995V9.23799H10.6376H15.2751V10.3002Z" fill="white"/>
</svg>
