<svg width="60" height="60" viewBox="0 0 60 60" fill="none" xmlns="http://www.w3.org/2000/svg">
<path fill-rule="evenodd" clip-rule="evenodd" d="M25.732 0.231715C24.3002 0.757523 23.9584 1.39623 23.6242 4.16941L23.3877 6.1324L22.0732 6.54648C21.3501 6.77443 20.0033 7.33344 19.0801 7.78893L17.4017 8.6171L15.8789 7.4434C15.0414 6.79786 14.1642 6.16854 13.9296 6.0447C13.3458 5.73707 12.2002 5.76227 11.5631 6.09685C11.273 6.2494 9.83721 7.5897 8.37249 9.07552C4.79126 12.7087 4.7391 12.9976 7.11715 16.0397L8.53812 17.8576L7.90723 19.1145C7.56015 19.8057 7.07106 21.0306 6.82026 21.8363C6.56947 22.642 6.34368 23.3329 6.31848 23.3714C6.29328 23.41 5.32058 23.5514 4.15685 23.6854C1.75946 23.9618 0.995753 24.2755 0.409591 25.224C0.0298843 25.8381 0 26.1684 0 29.7404C0 35.2362 0.173056 35.4936 4.20431 35.9937C5.46629 36.1503 6.51615 36.3031 6.53724 36.3331C6.55834 36.3632 6.78061 36.9591 7.03141 37.6574C7.28201 38.3557 7.73613 39.43 8.04064 40.0445C8.34514 40.6591 8.59418 41.2437 8.59418 41.3435C8.59418 41.4432 8.01739 42.2393 7.31228 43.1126C5.74853 45.0492 5.39617 45.8199 5.57508 46.9112C5.69169 47.6224 6.04132 48.0507 8.56684 50.576C11.1318 53.1412 11.5125 53.4498 12.2619 53.5729C13.2927 53.742 14.179 53.3199 16.3127 51.6433L17.7782 50.4917L19.6807 51.3767C20.727 51.8634 21.9099 52.3656 22.3091 52.4925C23.1187 52.7498 23.0875 52.6603 23.4295 55.6937C23.6533 57.6799 24.0862 58.5514 25.0827 59.0245C25.621 59.28 26.464 59.338 29.6208 59.3374C33.9531 59.3366 34.415 59.2189 35.073 57.9465C35.3086 57.491 35.8668 54.2694 35.9375 52.9574C35.9385 52.9394 36.6206 52.6965 37.453 52.4173C38.2855 52.1384 39.5752 51.6132 40.3188 51.2501L41.671 50.5899L43.3449 51.937C46.4469 54.4335 46.8158 54.3733 50.458 50.7757C51.9438 49.308 53.2841 47.8698 53.4367 47.5798C53.7716 46.9419 53.7964 45.7963 53.4876 45.2133C53.3634 44.9787 52.7052 44.072 52.0247 43.1983L50.7875 41.6102L51.55 39.9755C51.9694 39.0766 52.4647 37.8576 52.6507 37.2668C52.8366 36.6759 53.0421 36.1337 53.1072 36.0618C53.1722 35.99 54.1043 35.8302 55.1785 35.7067C57.4271 35.4483 58.3393 35.059 58.8897 34.1225C59.2323 33.5398 59.2881 33.0349 59.3446 30.0203C59.4178 26.102 59.2581 25.1867 58.3578 24.3644C57.756 23.8149 57.0952 23.646 54.1635 23.2922L53.1482 23.1698L52.72 21.8682C52.4845 21.1525 52.0518 20.0833 51.7586 19.4924C50.8322 17.6259 50.8287 17.6709 52.0089 16.2103C53.3476 14.5533 53.7136 13.8437 53.7136 12.9046C53.7136 11.937 53.4816 11.6092 51.0006 9.07063C48.2376 6.24354 47.6495 5.81989 46.4867 5.81989C45.5175 5.81989 44.9558 6.13475 42.934 7.81139L42.0181 8.5708L40.4925 7.80612C39.6534 7.38559 38.3297 6.83712 37.5507 6.5875C36.7718 6.33788 36.1329 6.04099 36.1309 5.9279C36.1116 4.88839 35.5207 1.82887 35.2512 1.3724C34.5527 0.190112 34.0695 0.062957 30.0796 0.0100246C27.3908 -0.0257194 26.2783 0.0309241 25.732 0.231715ZM31.9352 19.2016C35.7352 20.003 38.9607 23.0758 39.9374 26.8252C40.869 30.4024 39.8088 34.192 37.1259 36.875C32.922 41.0789 26.5332 41.0465 22.3644 36.8001C20.152 34.5465 19.335 32.5644 19.3393 29.4617C19.3435 26.4174 20.2198 24.296 22.3644 22.1379C23.9371 20.5552 25.1696 19.8305 27.1871 19.302C28.922 18.8475 30.1345 18.8219 31.9352 19.2016Z" fill="#65a30d"/>
</svg>
